Coordinates
version=1
nRows=5
nColumns=63
inDegrees=yes

Units are S.I. units (second, meters, Newtons, ...)
If the header above contains a line with 'inDegrees', this indicates whether rotational values are in degrees (yes) or radians (no).

endheader
time	pelvis_tilt	pelvis_list	pelvis_rotation	pelvis_tx	pelvis_ty	pelvis_tz	hip_flexion_r	hip_adduction_r	hip_rotation_r	knee_angle_r	knee_angle_r_beta	ankle_angle_r	subtalar_angle_r	mtp_angle_r	hip_flexion_l	hip_adduction_l	hip_rotation_l	knee_angle_l	knee_angle_l_beta	ankle_angle_l	subtalar_angle_l	mtp_angle_l	L5_S1_Flex_Ext	L5_S1_Lat_Bending	L5_S1_axial_rotation	L4_L5_Flex_Ext	L4_L5_Lat_Bending	L4_L5_axial_rotation	L3_L4_Flex_Ext	L3_L4_Lat_Bending	L3_L4_axial_rotation	L2_L3_Flex_Ext	L2_L3_Lat_Bending	L2_L3_axial_rotation	L1_L2_Flex_Ext	L1_L2_Lat_Bending	L1_L2_axial_rotation	L1_T12_Flex_Ext	L1_T12_Lat_Bending	L1_T12_axial_rotation	Abs_r3	Abs_r2	Abs_r1	Abs_t1	Abs_t2	neck_flexion	neck_bending	neck_rotation	arm_flex_r	arm_add_r	arm_rot_r	elbow_flex_r	pro_sup_r	wrist_flex_r	wrist_dev_r	arm_flex_l	arm_add_l	arm_rot_l	elbow_flex_l	pro_sup_l	wrist_flex_l	wrist_dev_l
      3.77083333	      0.18304497	     -4.38341285	     85.47094215	      0.22305855	      0.76827972	      0.77225121	      2.61771172	      0.41456732	     -4.63494894	      4.60606522	      0.08039100	     23.19054885	      7.71062843	      0.00000000	      3.22459454	     -0.00974106	      1.86400038	      6.24247041	      0.10895166	     20.01071939	     -8.40685595	      0.00000000	      0.09076185	      0.31931685	      0.62140659	      0.16855384	      0.42469142	      0.66024451	      0.14911265	      0.77638700	      0.66024451	      0.10373172	      0.77638700	      0.54373077	      0.08428146	      0.65115093	      0.50489286	      0.05186132	      0.49462181	      0.46605495	      0.64830284	      3.61217612	      3.45607706	      0.00000000	      0.00000000	     24.76342194	     -0.68885087	      8.67222969	     19.66215947	     -4.47582143	     72.23295432	     31.76738384	     71.86477477	      6.65048093	      2.51113687	     19.39637781	     -4.95877038	     75.00760769	     32.97421615	     36.79360739	      2.46135828	     -3.68548746
      3.79166667	      0.20974848	     -4.26750866	     85.03968611	      0.22375887	      0.76862215	      0.77298555	      2.67659539	      0.44014860	     -4.48388715	      4.91950612	      0.08586158	     22.94489094	      7.73905030	      0.00000000	      2.96237167	     -0.04803634	      1.58393971	      6.12170951	      0.10684399	     19.66358932	     -8.59046221	      0.00000000	      0.05602565	      0.31813686	      0.67019647	      0.10404523	      0.42312203	      0.71208375	      0.09204454	      0.77351797	      0.71208375	      0.06403171	      0.77351797	      0.58642191	      0.05202542	      0.64874469	      0.54453463	      0.03201305	      0.49279400	      0.50264735	      0.40018560	      3.59882783	      3.72743171	      0.00000000	      0.00000000	     24.81118908	     -1.06020093	      7.91173158	     20.18882774	     -4.38088304	     75.46537150	     31.45740546	     80.57678585	      6.36793837	      0.31616154	     20.57534543	     -5.01936216	     80.33477117	     32.63165182	     41.35702427	      1.95243233	     -4.67634268
      3.81250000	      0.14761055	     -4.27963682	     84.70477041	      0.22450961	      0.76871565	      0.77327643	      2.84037017	      0.39329783	     -4.42049659	      5.23120421	      0.09130174	     22.74893405	      7.68597656	      0.00000000	      2.79951640	     -0.00769591	      1.33809615	      5.85996234	      0.10227564	     19.49508319	     -8.67067733	      0.00000000	      0.05747678	      0.30184935	      0.70241280	      0.10674013	      0.40145963	      0.74631360	      0.09442860	      0.73391651	      0.74631360	      0.06569021	      0.73391651	      0.61461120	      0.05337294	      0.61553119	      0.57071040	      0.03284223	      0.46756464	      0.52680960	      0.41055089	      3.41458021	      3.90660925	      0.00000000	      0.00000000	     24.62469111	     -1.33683542	      7.12576236	     20.85076915	     -4.23974503	     79.20296420	     31.31993185	     86.52048682	      4.96272247	     -1.10536541	     21.46935348	     -4.98101354	     84.63377582	     32.51953773	     46.34857477	      0.29000057	     -5.61927349
      3.83333333	      0.06276775	     -4.25038720	     84.32801204	      0.22555837	      0.76884647	      0.77338960	      2.94998161	      0.33566256	     -4.41493590	      5.55132397	      0.09688888	     22.52263309	      7.65567282	      0.00000000	      2.58408027	      0.04535267	      1.09331578	      5.57213261	      0.09725206	     19.38962952	     -8.81332406	      0.00000000	      0.05180528	      0.27916704	      0.73836890	      0.09620758	      0.37129216	      0.78451696	      0.08511089	      0.67876674	      0.78451696	      0.05920825	      0.67876674	      0.64607279	      0.04810638	      0.56927743	      0.59992473	      0.02960153	      0.43242975	      0.55377668	      0.37003991	      3.15799340	      4.10658633	      0.00000000	      0.00000000	     24.43515717	     -1.50187577	      6.58756653	     22.11846043	     -3.95088461	     85.10358337	     30.89843385	     87.46408551	      2.15871403	     -2.54717726	     22.16411538	     -4.90503840	     87.75782484	     32.58967138	     51.45161497	     -2.32827856	     -6.15480881
      3.85416667	     -0.01019826	     -4.32710686	     84.09784724	      0.22625235	      0.76874852	      0.77300039	      3.16012626	      0.28733669	     -4.52801943	      5.93321340	      0.10355411	     22.33733972	      7.47064432	      0.00000000	      2.37089620	      0.09241410	      0.97941196	      5.09727898	      0.08896430	     19.16254266	     -8.79174055	      0.00000000	      0.06531496	      0.26202463	      0.74894867	      0.12129641	      0.34849275	      0.79575796	      0.10730594	      0.63708668	      0.79575796	      0.07464847	      0.63708668	      0.65533009	      0.06065147	      0.53432062	      0.60852080	      0.03732097	      0.40587615	      0.56171150	      0.46653821	      2.96407498	      4.16542783	      0.00000000	      0.00000000	     24.10836039	     -1.47145433	      6.57088285	     22.64668681	     -3.89664386	     87.27180512	     30.95480509	     87.97840972	      1.42712006	     -2.17442405	     22.19871910	     -4.74345111	     88.72682339	     32.57930825	     52.82231297	     -3.18627656	     -5.67089041
